# xmcd
#
# Track frame offsets:
#	183
#	18813
#	34833
#	50755
#	71865
#	93473
#	109708
#	137543
#	156630
#	184713
#	209610
#	225695
#	241115
#	256610
#	273093
#
# Disc length: 3934 seconds
#
# Revision: 1
# Processed by: cddbd v1.5.1PL2 Copyright (c) Steve Scherf et al.
# Submitted via: audiograbber 1.83.01
#
DISCID=cd0f5c0f
DTITLE=Various Artist - the best of Blues and Soul
DYEAR=1900
DGENRE=Blues
TTITLE0=Bobby Bland - Members Only
TTITLE1=Z Z Hill - Cheatin' In The Next Room
TTITLE2=Johnnie Taylor - Still Called The Blues
TTITLE3=Don't Mess With My Man - Denise Lasalle
TTITLE4=Latimore - Bad Risk
TTITLE5=McKinley Mitchell - The End Of The Rainbow
TTITLE6=B B King - Sweet Sixteen
TTITLE7=Little Milton - The Blues Is Alright
TTITLE8=Down Home Blues (X Rated) - Denise Lasalle
TTITLE9=Latimore - Let's Straighten It Out
TTITLE10=Z Z Hill - I'm A Blues Man
TTITLE11=Johnnie Taylor - Lady My Whole World Is You
TTITLE12=McKinley Mitchell - Trouble Blues
TTITLE13=Dorothy Moore - Misty Blue
TTITLE14=Little Milton - Nobody Sleepin' In My Bed But Me
EXTD=
EXTT0=
EXTT1=
EXTT2=
EXTT3=
EXTT4=
EXTT5=
EXTT6=
EXTT7=
EXTT8=
EXTT9=
EXTT10=
EXTT11=
EXTT12=
EXTT13=
EXTT14=
PLAYORDER=
